<svg version="1.0"  width="500.000000pt" height="500.000000pt" viewBox="0 0 500.000000 500.000000"
 preserveAspectRatio="xMidYMid meet">
<g transform="translate(0.000000,500.000000) scale(0.100000,-0.100000)"
fill="#000000" stroke="none">
<path d="M1440 4919 c-129 -22 -243 -106 -299 -222 -64 -133 -61 -18 -61 -2190 0 -1725 2 -1986 15 -2063 32 -182 76 -269 169 -331 80 -55 211 -79 336 -62 186 24 307 140 366 349 17 59 18 122 22 739 l3 675 82 -81 c275 -268 493 -374 838 -405 160 -14 328 0 490 41 612 155 1025 684 1124 1439 23 169 23 484 0 654 -85 652 -417 1135 -929 1348 -303 127 -683 144 -984 43 -193 -64 -359 -171 -539 -347 l-83 -81 0 36 c0 54 -36 184 -67 240 -61 112 -184 198 -313 219 -74 11 -94 11 -170 -1z m164 -49 c80 -13 152 -49 208 -105 90 -90 128 -199 128 -367 0 -54 3 -98 8 -98 4 1 23 21 42 46 58 76 237 239 332 305 234 160 485 230 782 216 362 -17 659 -148 912 -401 252 -253 402 -581 460 -1003 21 -159 21 -497 -1 -657 -83 -615 -377 -1075 -828 -1294 -294 -144 -641 -179 -964 -97 -232 59 -484 232 -678 465 l-60 71 -6 -743 c-6 -817 -4 -789 -69 -917 -75 -147 -223 -215 -414 -191 -175 22 -244 87 -299 278 l-22 77 -3 2012 c-3 2195 -5 2090 53 2209 73 148 236 224 419 194z"/> <path d="M2664 4215 c-136 -29 -257 -94 -366 -194 -214 -197 -311 -478 -311 -896 1 -397 92 -659 303 -865 152 -149 325 -219 536 -220 480 -1 804 442 804 1100 0 335 -79 608 -236 811 -96 125 -264 233 -410 264 -85 18 -238 18 -320 0z m295 -45 c184 -35 363 -172 469 -360 93 -165 139 -349 148 -595 12 -292 -25 -496 -126 -700 -87 -177 -185 -282 -331 -356 -100 -50 -180 -69 -294 -69 -176 0 -326 55 -459 167 -227 190 -329 462 -329 873 1 262 31 429 109 598 100 219 303 391 515 437 76 16 226 19 298 5z"/>
</g>
</svg>